<svg width="138" height="40" viewBox="0 0 138 40" fill="none" xmlns="http://www.w3.org/2000/svg">
    <path d="M10.9089 3.92452C10.9089 6.09434 10.8544 7.90566 10.7999 7.98113C10.7453 8.03773 10.4726 8 10.1999 7.88679C9.94532 7.77358 8.7817 7.66038 7.63626 7.66038C5.1272 7.66038 3.98176 8.03773 2.58178 9.33962C0.890897 10.9245 0 13.3585 0 16.4151C0 21.5095 2.45451 24.5661 6.78173 24.868C8.32716 24.9623 10.0362 24.6981 11.2362 24.151L11.9998 23.7925V-1.33514e-05H11.4544H10.9089V3.92452ZM10.418 9.01887L10.9089 9.24528V16.2076V23.1698L10.2726 23.3963C8.38171 24.0378 5.79992 23.9623 4.38176 23.2264C2.32724 22.1321 1.09089 19.5849 1.09089 16.4717C1.09089 12.8679 2.5636 10.0566 4.96357 9.07547C5.76356 8.73585 6.19992 8.67924 7.90898 8.75472C9.01806 8.79245 10.1271 8.90566 10.418 9.01887Z" fill="white"/>
    <path d="M67.6718 12.3024L67.7263 24.6232H68.8172L68.8718 12.3024L68.9081 0.000478745H68.2718H67.6354L67.6718 12.3024Z" fill="white"/>
    <path d="M16.1803 2.05669C15.9257 2.56612 15.9439 2.94348 16.2893 3.2831C16.7257 3.73594 17.3984 3.66046 17.7439 3.11329C18.0166 2.67933 18.0166 2.60386 17.7439 2.16989C17.3621 1.58499 16.4712 1.50952 16.1803 2.05669Z" fill="white"/>
    <path d="M37.6725 1.92281C37.5452 2.05488 37.4543 2.37564 37.4543 2.63979C37.4543 2.90394 37.5452 3.2247 37.6725 3.35678C37.7998 3.48885 38.1089 3.58319 38.3634 3.58319C38.6179 3.58319 38.927 3.48885 39.0543 3.35678C39.1816 3.2247 39.2725 2.90394 39.2725 2.63979C39.2725 2.37564 39.1816 2.05488 39.0543 1.92281C38.927 1.79073 38.6179 1.69639 38.3634 1.69639C38.1089 1.69639 37.7998 1.79073 37.6725 1.92281Z" fill="white"/>
    <path d="M45.0536 3.13045L44.5446 3.41347V5.56442V7.73423H43.1628C41.8537 7.73423 41.7991 7.7531 41.8537 8.14933C41.9082 8.54556 42.0173 8.58329 43.2355 8.63989L44.5446 8.6965V15.2437C44.5446 21.206 44.5809 21.8663 44.89 22.5456C45.5264 23.9795 46.7445 24.7154 48.4536 24.7154C49.4172 24.7154 49.4536 24.6965 49.4536 24.1871C49.4536 23.6965 49.4172 23.6777 48.4536 23.6588C47.2536 23.6211 46.4354 23.1682 45.9809 22.2626C45.6536 21.6588 45.6355 21.0927 45.6355 15.1493V8.67763H49.4536V7.73423H47.5445H45.6536L45.5991 5.30027L45.5445 2.8663L45.0536 3.13045Z" fill="white"/>
    <path d="M26.9071 7.54649C24.1071 8.16913 22.198 10.2823 21.5435 13.4899C20.6526 17.8673 22.1253 21.7918 25.2344 23.3201C26.9434 24.1692 29.9434 24.1503 31.8888 23.3012C32.1979 23.1503 32.2161 23.2446 32.1434 25.0182C32.0343 27.8673 31.3252 29.2446 29.5434 30.1126C28.2343 30.7541 25.9434 30.7541 24.0526 30.0937C23.2889 29.8295 22.6526 29.6409 22.6344 29.6597C22.6162 29.6975 22.5071 29.905 22.3799 30.1314C22.198 30.5088 22.2526 30.5654 23.1435 30.905C26.4525 32.2069 29.8525 31.8295 31.6161 29.9805C31.9615 29.622 32.4524 28.8673 32.707 28.3012L33.1797 27.2635V8.39555L31.9252 7.96159C30.507 7.47102 28.1616 7.28234 26.9071 7.54649ZM31.507 8.88612L32.1797 9.11253V15.6031V22.0937L31.5616 22.3578C30.4161 22.8484 28.507 23.0559 27.2343 22.8295C24.1253 22.2446 22.4889 19.8295 22.4889 15.8295C22.5071 12.1125 23.798 9.81065 26.4162 8.82951C27.1616 8.54649 27.7071 8.48989 29.0889 8.56536C30.0343 8.6031 31.1252 8.75404 31.507 8.88612Z" fill="white"/>
    <path d="M55.4171 7.64223C54.7625 7.79317 53.908 8.05732 53.5444 8.20826C52.9989 8.45355 52.908 8.56676 53.0171 8.92525C53.0717 9.15166 53.1626 9.35921 53.1808 9.39694C53.1989 9.43468 53.7444 9.26487 54.3807 9.03845C55.7989 8.52902 58.1989 8.35921 59.3988 8.67996C60.4534 8.94411 61.3443 9.62336 61.7443 10.4158C61.9079 10.7554 62.0897 11.68 62.1443 12.5479L62.2352 14.0762L59.9443 14.3215C56.108 14.6988 54.2716 15.3592 53.0171 16.8121C51.1808 18.9253 51.5808 22.397 53.8171 23.8687C55.5989 25.0385 59.2534 25.246 61.9079 24.3215L63.1806 23.8687L63.2352 17.9253C63.2715 13.9253 63.217 11.6422 63.0897 10.963C62.817 9.69883 61.817 8.51015 60.5261 7.94411C59.3261 7.39694 57.0534 7.26487 55.4171 7.64223ZM62.1806 19.246V23.1706L61.5988 23.3781C59.9988 23.963 56.6353 23.9819 55.2535 23.4347C53.5989 22.7555 52.708 20.963 53.108 19.0951C53.4717 17.3592 54.5262 16.4536 56.8716 15.8309C58.217 15.4913 61.7261 15.0762 62.0534 15.246C62.1261 15.2837 62.1806 17.0762 62.1806 19.246Z" fill="white"/>
    <path d="M78.0364 7.75553C75.9819 8.17062 74.0001 9.66119 73.1819 11.397C71.9092 14.0952 71.891 18.1329 73.1455 20.6801C74.6001 23.6046 77.9455 24.9442 81.4363 24.0008L82.7636 23.6424L82.6909 25.265C82.6363 26.4348 82.509 27.1141 82.2181 27.6801C81.0727 29.982 78.3273 30.4159 74.091 28.9631C73.7637 28.8688 73.6728 28.982 73.4001 29.7556C73.2364 30.2461 73.091 30.7178 73.091 30.7933C73.091 31.0386 75.4182 31.7178 77.0182 31.9254C81.5818 32.5292 84.5272 30.5103 85.109 26.3593C85.1999 25.7178 85.2726 21.4914 85.2726 16.9631V8.71779L84.509 8.39704C82.7272 7.66119 79.8727 7.37817 78.0364 7.75553ZM82.2363 9.98195L82.7272 10.1895V15.9254V21.6612L82.0545 21.9254C81.6727 22.0574 80.6363 22.1706 79.7273 22.1706C78.4 22.1706 77.9455 22.0952 77.3637 21.7556C76.4 21.2273 75.7455 20.4725 75.2364 19.3405C74.8728 18.5103 74.8182 18.0952 74.8182 16.0386C74.8182 13.982 74.8728 13.5669 75.2364 12.7178C76.1637 10.5857 77.9455 9.54799 80.3636 9.69893C81.1091 9.73666 81.9454 9.86874 82.2363 9.98195Z" fill="white"/>
    <path d="M92.6004 7.82879C91.8913 7.96087 90.8913 8.20615 90.3822 8.39483L89.455 8.71558V16.8099V24.9043H92.0004V10.225L92.8004 10.0175C93.2549 9.90427 94.2731 9.80993 95.0731 9.80993C96.6549 9.80993 96.564 9.8854 96.8185 8.50804C96.9094 8.07407 96.873 7.82879 96.7094 7.71558C96.3458 7.4703 94.1276 7.54577 92.6004 7.82879Z" fill="white"/>
    <path d="M104.307 7.73701C101.762 8.41626 99.9437 10.6615 99.3437 13.888C98.4528 18.7182 100.053 23.1333 103.235 24.6804C104.125 25.1144 104.507 25.1899 105.998 25.1899C107.489 25.1899 107.871 25.1144 108.762 24.6804C110.762 23.7182 112.143 21.6804 112.653 18.9446C113.525 14.1333 111.943 9.66155 108.798 8.17098C107.671 7.64268 105.507 7.43513 104.307 7.73701ZM107.18 9.83136C108.198 10.1144 109.489 11.5483 109.925 12.8502C110.434 14.3408 110.416 18.5484 109.907 20.0012C109.434 21.3219 108.18 22.7182 107.18 23.0012C105.58 23.454 104.398 23.1144 103.271 21.9069C102.016 20.5672 101.725 19.5106 101.725 16.4163C101.725 13.3785 101.998 12.3408 103.144 11.0389C104.271 9.77476 105.58 9.37853 107.18 9.83136Z" fill="white"/>
    <path d="M16.3991 16.1713L16.4536 24.6242L16.9627 24.6808L17.4536 24.7374V7.73734H16.9081H16.3627L16.3991 16.1713Z" fill="white"/>
    <path d="M37.8184 16.2248V24.7154H38.9093V7.73424H38.3639H37.8184V16.2248Z" fill="white"/>
    <path d="M117.018 13.7156C117.946 16.9043 119.073 20.7345 119.491 22.2062L120.273 24.9043H122.837L124.6 18.6024C125.582 15.1496 126.418 11.9986 126.491 11.6212C126.6 10.8665 126.909 10.6967 126.909 11.3948C126.909 11.6401 127.727 14.7345 128.727 18.2816C129.727 21.8288 130.546 24.7722 130.546 24.8288C130.546 24.8854 131.127 24.9043 131.855 24.8666L133.164 24.81L135.582 16.6024C136.909 12.0929 137.982 8.28162 138 8.14954C138 7.96086 137.691 7.92312 136.8 7.96086L135.582 8.01746L134.055 13.6779C133.2 16.7911 132.364 20.0552 132.182 20.942L131.873 22.5458L131.655 21.6967C131.546 21.225 130.655 17.942 129.691 14.376L127.927 7.92312H126.727H125.527L123.673 14.659C122.673 18.376 121.782 21.659 121.709 21.9798C121.6 22.4892 121.564 22.4137 121.346 21.3194C121.2 20.6401 120.364 17.376 119.473 14.0552L117.873 8.01746L116.6 7.96086L115.309 7.90426L117.018 13.7156Z" fill="white"/>
    <path d="M72.182 38.6792V40L104.782 39.9623L137.363 39.9057L137.672 38.9623C137.836 38.434 137.981 37.8679 137.981 37.6792C137.999 37.3774 136.308 37.3585 105.091 37.3585H72.182V38.6792Z" fill="#BB29BB"/>
</svg>