<svg width="34" height="34" viewBox="0 0 34 34" fill="none" xmlns="http://www.w3.org/2000/svg">
<rect x="0.5" y="0.5" width="33" height="33" rx="2.5" stroke="#C6CDD3"/>
<path d="M11 12.6439H13.9182C13.9182 10.9037 14.9307 9.56016 16.9248 9.56016C18.4392 9.56016 19.8276 10.3244 19.8276 12.1627C19.8276 13.5775 19.0007 14.2282 17.6942 15.2175C16.2063 16.307 15.028 17.5793 15.112 19.6448L15.1275 20.6765H18.0169V19.8855C18.0169 18.2857 18.6205 17.82 20.2498 16.5744C21.5962 15.5428 23 14.3975 23 11.9933C23 8.62656 20.1791 7 17.0906 7C14.1592 7 10.9315 8.44162 11.0022 12.6439H11ZM14.4532 24.9345C14.4532 26.1221 15.3928 27 16.6861 27C18.0324 27 18.9587 26.1221 18.9587 24.9345C18.9587 23.7045 18.0302 22.84 16.6839 22.84C15.3928 22.84 14.4532 23.7045 14.4532 24.9345Z" fill="#C6CDD3"/>
</svg>
